<?xml version="1.0" encoding="UTF-8"?>
<svg width="653px" height="134px" viewBox="0 0 653 134" version="1.1" xmlns="http://www.w3.org/2000/svg" xmlns:xlink="http://www.w3.org/1999/xlink">
    <!-- Generator: Sketch 43.2 (39069) - http://www.bohemiancoding.com/sketch -->
    <title>Slice 3</title>
    <desc>Created with Sketch.</desc>
    <defs></defs>
    <g id="Page-1" stroke="none" stroke-width="1" fill="none" fill-rule="evenodd">
        <text id="The-Hilltop-Alliance" font-family="GothamMedium, Gotham Medium" font-size="60" font-weight="normal" letter-spacing="-3.61500025" fill="#FFFFFF">
            <tspan x="-1.8724969" y="124">The Hilltop Alliance, LLC</tspan>
        </text>
        <g transform="translate(21.000000, 3.000000)" stroke="#FFFFFF" stroke-width="5">
            <path d="M0,62.9733845 C0,62.9733845 40.9323934,23.5342162 94.6862271,47.4707456 C149.063156,71.3814201 197.695323,57.1663587 215.582134,47.4707456 C233.499652,37.7751326 261.637474,17.7271904 295.548207,35.830839 C330.083314,53.9344877 386.383268,53.9344877 403.649542,39.06271 C421.56706,24.1909324 458.676436,2.85541277 498.335769,28.7103808 C537.995103,54.5653489 587.245247,64.9176781 607.742151,48.1016069" id="Stroke-1"></path>
            <path d="M82.1225056,42.200103 C116.657613,18.2894285 141.622381,-3.04609114 202.397876,15.6884187 C263.172091,33.7920673 268.296317,-8.22225575 322.673246,1.47335727 C377.050175,11.1689703 369.37855,29.2726189 399.440676,21.5212995 C429.502801,13.1132639 426.304158,0.185779866 453.817605,16.3452642" id="Stroke-2"></path>
        </g>
    </g>
</svg>