<?xml version="1.0" encoding="UTF-8"?>
<svg width="624px" height="178px" viewBox="0 0 624 178" version="1.1" xmlns="http://www.w3.org/2000/svg" xmlns:xlink="http://www.w3.org/1999/xlink">
    <!-- Generator: Sketch 43.2 (39069) - http://www.bohemiancoding.com/sketch -->
    <title>Slice</title>
    <desc>Created with Sketch.</desc>
    <defs></defs>
    <g id="Page-1" stroke="none" stroke-width="1" fill="none" fill-rule="evenodd">
        <text id="The-Hilltop-Alliance" font-family="GothamMedium, Gotham Medium" font-size="70" font-weight="normal" letter-spacing="-4.21750021" fill="#FFFFFF">
            <tspan x="-86.8512474" y="166">The Hilltop Alliance, LLC</tspan>
        </text>
        <g transform="translate(-70.000000, -37.000000)" fill="#FFFFFF">
            <path d="M3.2020202,101.964667 C-0.573242828,106.520222 -0.162873535,113.353556 4.03914667,117.446267 C8.24116687,121.538978 14.5441972,121.094264 18.3192921,116.538709 C18.7460493,116.076047 67.4787265,56.85182 121.268787,60.50082 C149.008844,62.3159356 174.222646,81.00082 196.068949,115.632153 C198.169959,118.817489 201.108011,120.650553 204.472989,120.650553 C206.573999,120.650553 208.248252,120.187891 209.938977,118.835438 C214.567922,115.650102 215.815082,108.81686 212.466744,103.79846 C187.254623,62.3178489 157.00428,40.4671267 122.535108,38.1893489 C58.6644848,34.0762289 5.72743434,98.7621111 3.2020202,101.964667 Z" id="Fill-1"></path>
            <path d="M411.638384,93.7601111 C393.156218,45.0202222 365.844768,15.4091111 330.535192,4.46211111 C265.403879,-14.6675778 198.171556,39.0916222 195.234343,41.8140222 C190.605356,45.46202 189.768356,52.2954444 193.133333,57.2956222 C196.498227,62.3140222 202.801341,63.2214889 207.413479,59.5734 C207.840236,59.1107378 269.607538,9.46228889 325.070044,25.8695778 C338.513147,29.9624711 350.709091,37.7213111 361.214099,48.6473556 C373.393235,61.4065556 384.325211,79.6287778 392.729251,102.407467 C394.403504,106.50036 398.195239,109.2408 401.970334,109.2408 C403.234217,109.2408 404.498101,108.778138 405.745597,108.333242 C411.227846,105.592802 413.738974,99.2221311 411.637964,93.7591089 L411.638384,93.7601111 Z" id="Fill-2"></path>
        </g>
    </g>
</svg>