<?xml version="1.0" encoding="UTF-8"?>
<svg width="435px" height="106px" viewBox="0 0 435 106" version="1.1" xmlns="http://www.w3.org/2000/svg" xmlns:xlink="http://www.w3.org/1999/xlink">
    <!-- Generator: Sketch 43.2 (39069) - http://www.bohemiancoding.com/sketch -->
    <title>Slice 3</title>
    <desc>Created with Sketch.</desc>
    <defs></defs>
    <g id="Page-1" stroke="none" stroke-width="1" fill="none" fill-rule="evenodd">
        <text id="The-Hilltop-Alliance" font-family="GothamMedium, Gotham Medium" font-size="40" font-weight="normal" letter-spacing="-2.41000009" fill="#FFFFFF">
            <tspan x="-0.914998927" y="99">The Hilltop Alliance, LLC</tspan>
        </text>
        <g transform="translate(6.000000, 3.000000)" stroke="#FFFFFF" stroke-width="5">
            <path d="M0,43.9814114 C0,43.9814114 28.4103126,16.4365955 65.7197168,33.1541716 C103.461599,49.8536902 137.216162,39.9257108 149.631021,33.1541716 C162.067193,26.3826323 181.597063,12.3808949 205.133788,25.024713 C229.103879,37.6685311 268.180492,37.6685311 280.164649,27.2818927 C292.600821,16.8952544 318.357658,1.99425654 345.884366,20.0516945 C373.411075,38.1091326 407.594563,45.3393307 421.821032,33.5947731" id="Stroke-1"></path>
            <path d="M56.9995023,29.4730878 C80.9695934,12.7735691 98.2971134,-2.12742873 140.480105,10.9569908 C182.662208,23.6008089 186.218825,-5.74252782 223.960707,1.02901143 C261.702589,7.80055068 256.377875,20.4443688 277.243364,15.0307489 C298.108852,9.15847002 295.888741,0.129751017 314.985246,11.4157401" id="Stroke-2"></path>
        </g>
    </g>
</svg>